<svg id="Layer_1" data-name="Layer 1" xmlns="http://www.w3.org/2000/svg" xmlns:xlink="http://www.w3.org/1999/xlink" viewBox="0 0 582.69 240.38"><defs><style>.cls-1{fill:#fcc14f;}.cls-2{fill:url(#Unbenannter_Verlauf_26);}.cls-3{fill:url(#Unbenannter_Verlauf_19);}.cls-4{fill:#1d1d1b;}</style><linearGradient id="Unbenannter_Verlauf_26" x1="360.74" y1="221.86" x2="489.22" y2="221.86" gradientUnits="userSpaceOnUse"><stop offset="0" stop-color="#fff" stop-opacity="0"/><stop offset="0.03" stop-color="#fffcf7" stop-opacity="0.05"/><stop offset="0.19" stop-color="#feedcb" stop-opacity="0.3"/><stop offset="0.34" stop-color="#fddfa5" stop-opacity="0.51"/><stop offset="0.49" stop-color="#fdd486" stop-opacity="0.69"/><stop offset="0.64" stop-color="#fdcc6e" stop-opacity="0.82"/><stop offset="0.77" stop-color="#fcc65d" stop-opacity="0.92"/><stop offset="0.9" stop-color="#fcc253" stop-opacity="0.98"/><stop offset="1" stop-color="#fcc14f"/></linearGradient><linearGradient id="Unbenannter_Verlauf_19" x1="195.65" y1="165.27" x2="467.18" y2="165.27" gradientUnits="userSpaceOnUse"><stop offset="0" stop-color="#fff" stop-opacity="0"/><stop offset="1"/></linearGradient></defs><title>Logo_RZV_positiv</title><path class="cls-1" d="M228.71,76.21c.08.12.19.32.34.57a15.4,15.4,0,0,0,1.25,2,5.9,5.9,0,0,0,1.85,1.68c.32.67.7,1.43,1.2,2.44a29.47,29.47,0,0,0,4.18,5.64,27.7,27.7,0,0,0,6,5.25A38.17,38.17,0,0,0,254.22,98a37.42,37.42,0,0,0,5.3.29h1l1.26,1.08a19.64,19.64,0,0,0,6.69,3.88,10.31,10.31,0,0,0,2.84.37,27.14,27.14,0,0,0,6.5-1c1.82-.48,3.54-.94,3.79-.94,2.35-.38,4-.87,4.41-.94a14.61,14.61,0,0,1,3.65,2.26c0,2.12,2.11,13.82,7.3,24a59.47,59.47,0,0,0,15.65,18.92s-1.55-3.07-3.43-7.24a104.14,104.14,0,0,1-5.77-15.42,144.73,144.73,0,0,1-3.26-20.73,9.2,9.2,0,0,0-1.9-5.51,14.65,14.65,0,0,0-3.22-3.15,23.27,23.27,0,0,0-5.86-3.1,9.43,9.43,0,0,0-3-.5c-3.22.11-4.89,1-5.92,1a50.87,50.87,0,0,0-5,1.17,19.58,19.58,0,0,1-3.79.7h-.21a5.4,5.4,0,0,1-.53-.26c-.37-.22-.84-.53-1.33-.89a29.13,29.13,0,0,1-2.53-2.12c-.39-.35-.58-.55-.58-.55l-1.58-1.6-2.25.07s-1.06,0-2.39,0h-.5c-1.48,0-3.41-.09-3.6-.14a31.08,31.08,0,0,1-7.17-2.94,20.44,20.44,0,0,1-3.47-3.23,25,25,0,0,1-2.6-3.32c-.75-1.51-1.34-2.72-1.49-3.07a6.38,6.38,0,0,0-2.26-3c.33-.3.76-.65,1.19-1s1.18-.94,1.7-1.32a12.13,12.13,0,0,1,1-.7h0c.42-.24,2.46-1.22,4.43-2.07a33.86,33.86,0,0,1,4.51-1.69,81.05,81.05,0,0,0,13.43-4.37,19.51,19.51,0,0,0,6-4.69A16.81,16.81,0,0,0,274.72,51a13.7,13.7,0,0,0,.57-4.28q0-.66,0-1.26c.63-.46,1.33-1,2.13-1.61,1.23-.94,2.63-2,3-2.19a23.88,23.88,0,0,0,2.24-1.6l2.57-2a37.25,37.25,0,0,1,4.11-2.91c1.45-.67,5.09-1.87,14.4-1.87h.49c9.24,0,18,2.4,22.46,4.59.94.37,2.88,2.23,4.48,4.4s3,4.47,4.28,6.17c.41.53,5.43,4.2,6.32,5.06a180.09,180.09,0,0,0,20.14,17.15c12.34,8.82,54.85,22.76,63.87,26.6,3.66,1.55,9.79,3.82,11.95,7.81a6.24,6.24,0,0,1,.79,3c0,6.41-8.26,10.6-8.26,10.6-7.57,4.92-17.34,7.67-28,13-5.33,2.7-10.3,5.62-14.2,9.33-3.62,3.41-6.42,7.87-6.75,13.14,0,.36,0,.73,0,1.1a15.08,15.08,0,0,0,4.94,11c5.1,4.86,12.52,7.7,20.94,10.48,4,1.29,8.26,2.52,12.56,3.78a155.93,155.93,0,0,0,15.08-4.42c-7.55-2.52-15.15-4.88-21.34-6.79-7.22-2.2-22.91-6.35-23.23-14.21a6.74,6.74,0,0,1,.2-2c2.5-10.3,27.35-18.5,37.3-23.21,5.31-2.53,10.24-5.18,14.17-8.47s7-7.56,7.14-13v-.19h0a11.69,11.69,0,0,0-.49-3.32,14.6,14.6,0,0,0-2.85-5.21C437.9,89,408.19,80.42,408.19,80.42c-11.76-3.42-34-13.25-46.6-23.08-2.95-2.31-8.95-8.14-11.86-10.61-2.52-2-5-3.88-5.94-4.59h0L343,41c-.68-1-1.58-2.41-2.67-3.91-2.21-3-4.83-6.5-9.1-8.67-6.27-3-16-5.55-27-5.62h-.59c-10.11,0-15.36,1.3-18.7,2.82a34.36,34.36,0,0,0-5.83,3.88c-1.75,1.36-3.54,2.79-4,3.09l0,0a46.45,46.45,0,0,0-3.81,2.72c-1.34,1-2.85,2.17-2.89,2.19a7.65,7.65,0,0,0-3.7,6.29c0,.92.1,1.72.09,2.88,0,.35,0,.69,0,.9s-.09.16-.15.25a14.5,14.5,0,0,1-1.12,1.4,9.65,9.65,0,0,1-2.66,2.21,75.19,75.19,0,0,1-11,3.57,38.24,38.24,0,0,0-6.68,2.36c-2.27,1-4.22,1.92-5.29,2.49a41.18,41.18,0,0,0-6.45,5,9.86,9.86,0,0,0-1.9,2.25h0l-.5.61c-.16.27-.44.57-.74,1a6.83,6.83,0,0,0-1,3.47,6.3,6.3,0,0,0,1.4,3.92Z" transform="translate(-22.57 -22.79)"/><path class="cls-2" d="M489.2,215.94a19.14,19.14,0,0,0-.33-2.84c-2.4-12.31-16.84-21.22-27.45-26.66a139.81,139.81,0,0,0-13.9-5.9q-3.79,1.8-8.12,3.4c-1.29.47-2.64.93-4,1.38a114.19,114.19,0,0,1,10.78,4.26c13,5.25,28,13.83,30.33,24.45a13.15,13.15,0,0,1,.3,2.34c.42,12.82-9.22,20.61-20.52,24.79-15.26,5.65-33.21,9.07-52,10.78s-43.18,3.42-43.18,3.42l-.35,7.82s34.82-.48,65.85-5.15c7.17-1.08,14.14-2.38,20.43-4C472.67,247.66,490,235.28,489.2,215.94Z" transform="translate(-22.57 -22.79)"/><path class="cls-3" d="M466.1,151.17c-2-5.57-6.61-9.85-11.81-13.12-6.12-3.87-13.6-7-21.12-9.82l-8.37,4L422,133.62c3.64,1.35,7.32,2.7,10.88,4.13,7.33,2.85,14.1,5.92,18.65,9.28,3,2.27,4.95,4.4,5.91,6.63a9.14,9.14,0,0,1,.76,3.64v0c0,3.14-1.5,6-5.21,9.27-6.42,5.59-19.3,10.62-35.25,14.32-48,11.29-75.14,9.17-102.4,11.58-8.72.76-50,.92-81.69.92-21.16,0-38-.07-38-.07l.93,8.89,72,.05c12.67,0,37-.25,64.3-1.82,15.58-.9,32.14-2.23,48.09-4.19,22-2.71,42.74-6.58,58.44-12.36,7.86-2.91,14.49-6.27,19.45-10.51s8.32-9.68,8.33-16v-.21h0A17.75,17.75,0,0,0,466.1,151.17Z" transform="translate(-22.57 -22.79)"/><path class="cls-4" d="M603.49,70.33l-.5-.61v0a9.55,9.55,0,0,0-1.9-2.24,40.13,40.13,0,0,0-6.45-4.95c-1.07-.58-3-1.51-5.29-2.5a38.17,38.17,0,0,0-6.68-2.35,74.13,74.13,0,0,1-11-3.58,9.57,9.57,0,0,1-2.66-2.2,15.5,15.5,0,0,1-1.11-1.4l-.16-.25c0-.21,0-.55,0-.9,0-1.16.08-2,.09-2.88a7.6,7.6,0,0,0-3.7-6.29L561.2,38a44.41,44.41,0,0,0-3.81-2.73h0c-.43-.31-2.22-1.73-4-3.09a33.83,33.83,0,0,0-5.83-3.89c-3.4-1.54-8.78-2.86-19.29-2.81-10.95.07-20.71,2.61-27,5.63-4.27,2.17-6.89,5.69-9.1,8.67-1.08,1.5-2,2.89-2.67,3.91-.34.5-.62.91-.78,1.13h0c-.93.7-3.42,2.55-5.94,4.58-2.92,2.47-5.78,4.7-7.74,7.89-.46.86-6.52,5-15.22,10.34C452.44,72.09,430,78.82,417.23,84c-6.52,2.21-13.13,5-18.45,8.58S389,101,389,107.78A15.56,15.56,0,0,0,393,118.05c3.58,4,9.05,7.22,14.8,9.9L419.34,123c-.64-.24-1.69-.68-2.3-.93-5.94-2.39-11.14-4.89-14.51-7.45s-3.74-4-4-6.9c-.16-1.92,1-4.82,5.31-7.74,10.1-6.45,49.22-19,61.4-24.41,8.73-3.9,18.13-11.89,18.87-13.14a32.11,32.11,0,0,1,5.25-5c2.63-2.13,5.15-4,6.06-4.66a8.63,8.63,0,0,0,1.66-1.77c1.27-1.7,2.62-4,4.28-6.16s3.54-4,4.48-4.41c4.43-2.19,13.22-4.57,22.46-4.58,9.68,0,13.42,1.19,14.89,1.87a35.82,35.82,0,0,1,4.11,2.91c.91.7,1.8,1.42,2.57,2a20.71,20.71,0,0,0,2.24,1.6c.35.22,1.75,1.25,3,2.19l2.13,1.62c0,.4,0,.82,0,1.25a13.67,13.67,0,0,0,.57,4.28,16.85,16.85,0,0,0,3.44,5.25,19.54,19.54,0,0,0,6,4.68A79.54,79.54,0,0,0,580.68,68a36.06,36.06,0,0,1,4.51,1.69c2,.85,4,1.83,4.42,2.07a32,32,0,0,1,2.74,2l1.18,1a6.41,6.41,0,0,0-2.26,3c-.15.35-.73,1.55-1.5,3.06a24.23,24.23,0,0,1-2.59,3.33,20.89,20.89,0,0,1-3.47,3.23,30.51,30.51,0,0,1-7.17,2.93,35.54,35.54,0,0,1-3.6.15c-1.56,0-2.89,0-2.89,0l-2.24-.06L566.22,92s-.19.2-.58.56c-.59.55-1.58,1.41-2.53,2.12-.49.35-1,.67-1.33.89a4.3,4.3,0,0,1-.54.26h-.12a18.21,18.21,0,0,1-3.87-.69,48.2,48.2,0,0,0-5-1.17c-1,0-2.7-.92-5.91-1a9.2,9.2,0,0,0-3,.51,23.31,23.31,0,0,0-5.85,3.09,14.69,14.69,0,0,0-3.23,3.15,9.25,9.25,0,0,0-1.9,5.51,145.79,145.79,0,0,1-3.25,20.74c-2.19,8.75-9.21,22.66-9.21,22.66a59.58,59.58,0,0,0,15.65-18.93c5.19-10.16,7.27-21.86,7.3-24a14.58,14.58,0,0,1,3.65-2.25c.45.06,2,.56,4.42.94.24,0,2,.45,3.79.94a26.5,26.5,0,0,0,6.48,1,9.89,9.89,0,0,0,2.85-.36A19.81,19.81,0,0,0,570.7,102L572,101h1a36,36,0,0,0,5.3-.3A37.83,37.83,0,0,0,589,96.43a28.27,28.27,0,0,0,6-5.25,29.86,29.86,0,0,0,4.17-5.65c.49-1,.88-1.76,1.2-2.43a6.15,6.15,0,0,0,1.85-1.68,14,14,0,0,0,1.25-2c.15-.24.26-.44.34-.57l.07-.1a6.35,6.35,0,0,0,1.4-3.92A7.13,7.13,0,0,0,603.49,70.33Z" transform="translate(-22.57 -22.79)"/><path class="cls-4" d="M28.8,168.3c0-4.57-.1-4.57-4.39-5.26v-1H35.77c3.46,0,13,0,13,8.27,0,5.26-3.42,7-7.07,7.62l8.5,15.19H44.91l-8.17-14.36H33.87V193.1H28.8Zm5.07,8.27h2.64c3,0,7.2-.83,7.2-6,0-5-2.86-6.38-6.74-6.38-3.1,0-3.1.84-3.1,4.16Z" transform="translate(-22.57 -22.79)"/><path class="cls-4" d="M53.54,190.42,69,164.19h-7.8c-2.77,0-5.45,0-5.45,4.53H54.47l.18-6.7h20v2.45L59,190.93H68.5c2.77,0,5.45-.05,5.45-4.53h1.29l-.18,6.7H53.54Z" transform="translate(-22.57 -22.79)"/><path class="cls-4" d="M80.27,167.93c-1.47-4.2-1.89-4.2-5.58-4.89v-1h9l9,25.31h.09L101.61,162h3L93.34,193.1h-4Z" transform="translate(-22.57 -22.79)"/><path class="cls-4" d="M30.85,215.94c0-6.54-.5-7.28-8.28-8.11V206L40,204.11v25.64h22.5V205h9.1V260.7h-9.1V233.64H40V260.7h-9.1Z" transform="translate(-22.57 -22.79)"/><path class="cls-4" d="M82.14,241.5c0-13.81,5.79-20.18,17.87-20.18s17.87,8.27,17.87,20.18c0,13.49-5.62,20.11-17.87,20.11C86.69,261.61,82.14,253.09,82.14,241.5ZM100,258.79c8.11,0,8.77-9,8.77-17.29,0-7.61-.74-17.37-8.77-17.37-8.19,0-8.77,10.09-8.77,17.37C91.24,248.37,91.82,258.79,100,258.79Z" transform="translate(-22.57 -22.79)"/><path class="cls-4" d="M128.39,231.33c-2.06-5.55-3-7-8.6-7.45v-1.65h13.82l11.58,29.12,11.25-29.12h4.72L146.35,260.7h-6Z" transform="translate(-22.57 -22.79)"/><path class="cls-4" d="M187.14,255.82c-1.49,1.73-4.31,5.79-10.68,5.79s-11.08-4.64-11.08-9.52c0-11.66,16.46-12.57,21.76-12.74v-4.22c0-5.21,0-11-5.21-11-5.47,0-5.8,4.8-5.8,8.44h-9.84c.91-5.46,3.64-11.25,15.55-11.25,11.75,0,13.57,6,13.57,14.23V260.7h-8.27Zm0-13.49c-3,.08-12.66.5-12.66,8.36,0,3.8,1.9,6.45,5,6.45,4.8,0,7.7-4.39,7.7-10Z" transform="translate(-22.57 -22.79)"/><path class="cls-4" d="M208.65,230.5c-1.32-5.05-2.15-6.21-7.53-6.62v-1.65h13.49l7.28,28.62h.16l9.52-28.62h3.55L245.8,251H246l6.13-28.79h4.3L247.7,260.7h-6.37L232,234.3h-.16l-9.1,26.4h-6.13Z" transform="translate(-22.57 -22.79)"/><path class="cls-4" d="M285.26,255.82c-1.48,1.73-4.3,5.79-10.67,5.79s-11.08-4.64-11.08-9.52c0-11.66,16.46-12.57,21.75-12.74v-4.22c0-5.21,0-11-5.21-11-5.46,0-5.79,4.8-5.79,8.44h-9.84c.91-5.46,3.64-11.25,15.55-11.25,11.75,0,13.57,6,13.57,14.23V260.7h-8.28Zm0-13.49c-3,.08-12.65.5-12.65,8.36,0,3.8,1.9,6.45,5,6.45,4.8,0,7.69-4.39,7.69-10Z" transform="translate(-22.57 -22.79)"/><path class="cls-4" d="M306.2,233c0-5.79-1.33-7.2-6.54-7.36V224l14.81-2.64v10.92h.17c1.16-3.81,3.72-10.92,10.34-10.92a26.25,26.25,0,0,1,4.47.41v7.86a15.16,15.16,0,0,0-4.22-1c-8.36,0-10.76,6.53-10.76,12.32V260.7H306.2Z" transform="translate(-22.57 -22.79)"/><path class="cls-4" d="M356.58,260.94a30.81,30.81,0,0,1-5.54.67c-7.94,0-12.57-1.24-12.57-10.68v-25.4H332v-3.3h6.46v-6.54l8.27-7.36v13.9h10.84v3.3H346.74v24.08c0,5.79.41,8.36,6.78,8.36a13.22,13.22,0,0,0,3.06-.33Z" transform="translate(-22.57 -22.79)"/></svg>